<svg xmlns="http://www.w3.org/2000/svg" width="128" height="128" viewBox="0 0 64 64" role="img" aria-label="PressureProof icon">
  <defs>
    <linearGradient id="ppGradient" x1="0" y1="0" x2="1" y2="1">
      <stop offset="0%" stop-color="#111827"/>
      <stop offset="55%" stop-color="#4F46E5"/>
      <stop offset="100%" stop-color="#F59E0B"/>
    </linearGradient>
  </defs>
  <rect width="64" height="64" rx="14" fill="url(#ppGradient)"/>
  <rect x="2" y="2" width="60" height="60" rx="12" fill="none" stroke="#FFFFFF" stroke-opacity="0.2"/>
  <g fill="#FFFFFF" transform="translate(8 8) scale(3)">
    <path d="M5.338 1.59a61.44 61.44 0 0 0-2.837.856.481.481 0 0 0-.328.39c-.554 4.157.726 7.19 2.253 9.188a10.725 10.725 0 0 0 2.287 2.233c.346.244.652.42.893.533.12.057.218.095.282.119l.032.012.005.002.002.001.001.001.002.001a.5.5 0 0 0 .374 0l.002-.001.001-.001.002-.001.005-.002.032-.012a5.85 5.85 0 0 0 .282-.119 7.88 7.88 0 0 0 .893-.533 10.725 10.725 0 0 0 2.287-2.233c1.527-1.997 2.807-5.031 2.253-9.188a.48.48 0 0 0-.328-.39c-.651-.213-1.75-.56-2.837-.856C9.552 1.29 8.531 1.067 8 1.067c-.531 0-1.552.223-2.662.524z"/>
    <path d="M10.854 5.146a.5.5 0 0 1 0 .708l-3.5 3.5a.5.5 0 0 1-.708 0l-1.5-1.5a.5.5 0 0 1 .708-.708L7 8.293l3.146-3.147a.5.5 0 0 1 .708 0z"/>
  </g>
</svg>
